<svg width="960" height="210" viewBox="0 0 960 210" fill="none" xmlns="http://www.w3.org/2000/svg">
<rect width="144" height="144" rx="72" fill="#E54F26"/>
<path d="M50.4375 48L50.625 50.1875L54.125 89.75L54.25 91.125L55.5625 91.5L71.4375 95.9375L71.9375 96.0625L72.5 95.9375L88.375 91.5625L89.6875 91.1875L89.8125 89.8125L93.375 50.1875L93.5625 48.0625H91.375L52.625 48H50.4375ZM54.8125 52L89.1875 52.0625L85.9375 88.0625L72 91.9375L58 88.0625L54.8125 52ZM59.625 58L60.9375 72.9375H78.0625L77.5 79.375L72 80.875H71.9375L66.4375 79.375L66.125 75.25H61.125L61.8125 83.1875L71.9375 86H72L82.125 83.1875L83.5 68H65.4375L65 62.9375H83.9375L84.375 58H59.625Z" fill="white"/>
<path d="M46.812 191.176H39.388V201H35.804V178.664H39.388V188.168H46.812V178.664H50.396V201H46.812V191.176ZM64.0795 181.672V201H60.4955V181.672H53.4875V178.664H71.0875V181.672H64.0795ZM86.115 190.312L86.211 183.592H85.955L81.475 195.08L76.995 183.592H76.739L76.835 190.312V201H73.667V178.664H78.051L81.475 187.528H81.699L85.155 178.664H89.283V201H86.115V190.312ZM94.5185 201V178.664H98.1025V197.992H108.279V201H94.5185Z" fill="#E54F26"/>
<rect x="272" width="144" height="144" rx="72" fill="#0C73B8"/>
<path d="M324 48L328 90L344 96L360 90L364 48H324ZM330.664 54H357.305L356.781 60L345.391 66H350.242H356H356.246L355.223 78.0156L355.262 78L354.711 84L344 88L333.27 84L332.609 76H338.652L338.965 80.0664L344 81.8086L349.043 80.1016L349.734 72H332.262L331.746 66L343.566 60H331.219L330.664 54Z" fill="white"/>
<path d="M325.24 201.384C322.403 201.384 320.291 200.381 318.904 198.376C317.539 196.371 316.856 193.523 316.856 189.832C316.856 186.141 317.539 183.293 318.904 181.288C320.291 179.283 322.403 178.28 325.24 178.28C326.328 178.28 327.267 178.429 328.056 178.728C328.867 179.005 329.56 179.4 330.136 179.912C330.712 180.403 331.192 180.989 331.576 181.672C331.981 182.333 332.312 183.048 332.568 183.816L329.336 184.904C329.165 184.392 328.973 183.912 328.76 183.464C328.547 183.016 328.28 182.632 327.96 182.312C327.64 181.992 327.256 181.736 326.808 181.544C326.381 181.352 325.848 181.256 325.208 181.256C323.629 181.256 322.477 181.864 321.752 183.08C321.027 184.275 320.664 185.896 320.664 187.944V191.72C320.664 193.768 321.027 195.4 321.752 196.616C322.477 197.811 323.629 198.408 325.208 198.408C325.848 198.408 326.381 198.312 326.808 198.12C327.256 197.928 327.64 197.672 327.96 197.352C328.28 197.032 328.547 196.648 328.76 196.2C328.973 195.752 329.165 195.272 329.336 194.76L332.568 195.848C332.312 196.616 331.981 197.341 331.576 198.024C331.192 198.685 330.712 199.272 330.136 199.784C329.56 200.275 328.867 200.669 328.056 200.968C327.267 201.245 326.328 201.384 325.24 201.384ZM343.595 201.384C341.654 201.384 340.022 201.043 338.7 200.36C337.377 199.677 336.289 198.771 335.436 197.64L337.74 195.432C338.593 196.456 339.5 197.213 340.46 197.704C341.42 198.173 342.508 198.408 343.724 198.408C345.132 198.408 346.209 198.088 346.956 197.448C347.724 196.808 348.108 195.891 348.108 194.696C348.108 193.736 347.83 193 347.276 192.488C346.721 191.955 345.772 191.571 344.428 191.336L341.996 190.952C340.929 190.781 340.033 190.504 339.308 190.12C338.582 189.715 337.996 189.245 337.548 188.712C337.1 188.157 336.769 187.549 336.556 186.888C336.364 186.205 336.268 185.491 336.268 184.744C336.268 182.632 336.95 181.032 338.316 179.944C339.681 178.835 341.558 178.28 343.948 178.28C345.718 178.28 347.222 178.568 348.46 179.144C349.718 179.699 350.731 180.488 351.5 181.512L349.26 183.752C348.641 183.005 347.905 182.408 347.052 181.96C346.22 181.491 345.185 181.256 343.948 181.256C342.625 181.256 341.612 181.544 340.908 182.12C340.225 182.675 339.884 183.496 339.884 184.584C339.884 185.501 340.15 186.227 340.684 186.76C341.238 187.272 342.209 187.645 343.595 187.88L345.964 188.296C347.969 188.659 349.43 189.395 350.347 190.504C351.265 191.592 351.724 192.925 351.724 194.504C351.724 195.528 351.542 196.467 351.18 197.32C350.838 198.173 350.316 198.899 349.612 199.496C348.929 200.093 348.076 200.563 347.052 200.904C346.049 201.224 344.897 201.384 343.595 201.384ZM362.783 201.384C360.842 201.384 359.21 201.043 357.887 200.36C356.564 199.677 355.476 198.771 354.623 197.64L356.927 195.432C357.78 196.456 358.687 197.213 359.647 197.704C360.607 198.173 361.695 198.408 362.911 198.408C364.319 198.408 365.396 198.088 366.143 197.448C366.911 196.808 367.295 195.891 367.295 194.696C367.295 193.736 367.018 193 366.463 192.488C365.908 191.955 364.959 191.571 363.615 191.336L361.183 190.952C360.116 190.781 359.22 190.504 358.495 190.12C357.77 189.715 357.183 189.245 356.735 188.712C356.287 188.157 355.956 187.549 355.743 186.888C355.551 186.205 355.455 185.491 355.455 184.744C355.455 182.632 356.138 181.032 357.503 179.944C358.868 178.835 360.746 178.28 363.135 178.28C364.906 178.28 366.41 178.568 367.647 179.144C368.906 179.699 369.919 180.488 370.687 181.512L368.447 183.752C367.828 183.005 367.092 182.408 366.239 181.96C365.407 181.491 364.372 181.256 363.135 181.256C361.812 181.256 360.799 181.544 360.095 182.12C359.412 182.675 359.071 183.496 359.071 184.584C359.071 185.501 359.338 186.227 359.871 186.76C360.426 187.272 361.396 187.645 362.783 187.88L365.151 188.296C367.156 188.659 368.618 189.395 369.535 190.504C370.452 191.592 370.911 192.925 370.911 194.504C370.911 195.528 370.73 196.467 370.367 197.32C370.026 198.173 369.503 198.899 368.799 199.496C368.116 200.093 367.263 200.563 366.239 200.904C365.236 201.224 364.084 201.384 362.783 201.384Z" fill="#0C73B8"/>
<rect x="544" width="144" height="144" rx="72" fill="#E7A020"/>
<path d="M615.988 46C615.258 46 614.528 46.1791 613.898 46.5391L594.078 57.9805C592.798 58.7205 592 60.1216 592 61.6016V82.3594C592 83.8594 592.798 85.2405 594.078 85.9805L599.281 88.9805C601.801 90.2205 602.7 90.2188 603.84 90.2188C607.58 90.2188 609.719 87.9591 609.719 84.0391V62.6211C609.719 62.3011 609.461 62.0391 609.141 62.0391H606.641C606.301 62.0391 606.059 62.3011 606.059 62.6211V84.0195C606.059 85.7795 604.241 87.4991 601.301 86.0391L595.859 82.8984C595.659 82.7984 595.539 82.5794 595.539 82.3594V61.6211C595.539 61.3811 595.659 61.1786 595.859 61.0586L615.68 49.6211C615.86 49.5011 616.101 49.5011 616.301 49.6211L636.121 61.0586C636.321 61.1786 636.441 61.3816 636.441 61.6016V82.3594C636.441 82.5794 636.321 82.7984 636.141 82.8984L616.301 94.3594C616.121 94.4594 615.86 94.4594 615.68 94.3594L610.578 91.3398C610.438 91.2398 610.242 91.2208 610.102 91.3008C608.682 92.1008 608.422 92.2002 607.102 92.6602C606.782 92.7602 606.281 92.9595 607.281 93.5195L613.898 97.4414C614.538 97.8014 615.26 98 615.98 98C616.72 98 617.438 97.8014 618.078 97.4414L637.922 85.9805C639.202 85.2405 640 83.8594 640 82.3594V61.6211C640 60.1211 639.202 58.74 637.922 58L618.078 46.5391C617.448 46.1791 616.718 46 615.988 46ZM621.32 62.0117C615.66 62.0117 612.281 64.4102 612.281 68.4102C612.281 72.7502 615.638 73.9483 621.078 74.4883C627.578 75.1283 628.078 76.0911 628.078 77.3711C628.078 79.5711 626.301 80.5117 622.121 80.5117C616.861 80.5117 615.7 79.1898 615.32 76.5898C615.28 76.3098 615.042 76.1094 614.762 76.1094H612.18C611.86 76.1094 611.621 76.3719 611.621 76.6719C611.621 80.0119 613.441 83.9883 622.121 83.9883C628.401 83.9883 632 81.5114 632 77.1914C632 72.9114 629.1 71.7692 623.02 70.9492C616.84 70.1492 616.219 69.7291 616.219 68.2891C616.219 67.0891 616.76 65.5117 621.32 65.5117C625.38 65.5117 626.9 66.3889 627.52 69.1289C627.58 69.3889 627.798 69.5898 628.078 69.5898H630.66C630.82 69.5898 630.958 69.5106 631.078 69.3906C631.178 69.2906 631.239 69.1292 631.219 68.9492C630.819 64.2292 627.68 62.0117 621.32 62.0117Z" fill="white"/>
<path d="M612.276 178.664V195.016C612.276 195.976 612.105 196.851 611.764 197.64C611.444 198.429 610.975 199.101 610.356 199.656C609.759 200.211 609.033 200.637 608.18 200.936C607.327 201.235 606.377 201.384 605.332 201.384C603.369 201.384 601.801 200.893 600.628 199.912C599.476 198.931 598.729 197.576 598.388 195.848L601.78 195.144C601.972 196.061 602.335 196.829 602.868 197.448C603.401 198.067 604.233 198.376 605.364 198.376C606.409 198.376 607.22 198.067 607.796 197.448C608.393 196.808 608.692 195.837 608.692 194.536V181.672H600.916V178.664H612.276ZM625.095 201.384C623.154 201.384 621.522 201.043 620.2 200.36C618.877 199.677 617.789 198.771 616.936 197.64L619.24 195.432C620.093 196.456 621 197.213 621.96 197.704C622.92 198.173 624.008 198.408 625.224 198.408C626.632 198.408 627.709 198.088 628.456 197.448C629.224 196.808 629.608 195.891 629.608 194.696C629.608 193.736 629.33 193 628.776 192.488C628.221 191.955 627.272 191.571 625.928 191.336L623.496 190.952C622.429 190.781 621.533 190.504 620.808 190.12C620.082 189.715 619.496 189.245 619.048 188.712C618.6 188.157 618.269 187.549 618.056 186.888C617.864 186.205 617.768 185.491 617.768 184.744C617.768 182.632 618.45 181.032 619.816 179.944C621.181 178.835 623.058 178.28 625.448 178.28C627.218 178.28 628.722 178.568 629.96 179.144C631.218 179.699 632.231 180.488 633 181.512L630.76 183.752C630.141 183.005 629.405 182.408 628.552 181.96C627.72 181.491 626.685 181.256 625.448 181.256C624.125 181.256 623.112 181.544 622.408 182.12C621.725 182.675 621.384 183.496 621.384 184.584C621.384 185.501 621.65 186.227 622.184 186.76C622.738 187.272 623.709 187.645 625.095 187.88L627.464 188.296C629.469 188.659 630.93 189.395 631.847 190.504C632.765 191.592 633.224 192.925 633.224 194.504C633.224 195.528 633.042 196.467 632.68 197.32C632.338 198.173 631.816 198.899 631.112 199.496C630.429 200.093 629.576 200.563 628.552 200.904C627.549 201.224 626.397 201.384 625.095 201.384Z" fill="#E7A020"/>
<rect x="816" width="144" height="144" rx="72" fill="#28A9E0"/>
<path d="M878.809 46.7187C877.118 46.6066 875.456 46.9091 874 47.75C872.058 48.8711 870.765 50.7849 870.07 52.9883C869.376 55.1916 869.215 57.7309 869.469 60.5039C869.494 60.7848 869.544 61.0775 869.578 61.3633C869.313 61.4766 869.034 61.5808 868.777 61.6992C866.249 62.8661 864.131 64.2733 862.57 65.9765C861.009 67.6798 860 69.7576 860 72C860 74.2423 861.009 76.3202 862.57 78.0234C864.131 79.7266 866.249 81.1339 868.777 82.3008C869.034 82.4192 869.313 82.5233 869.578 82.6367C869.544 82.9224 869.494 83.2152 869.469 83.4961C869.215 86.2691 869.376 88.8083 870.07 91.0117C870.765 93.2151 872.058 95.1288 874 96.25C875.942 97.3711 878.245 97.5353 880.5 97.0351C882.755 96.535 885.034 95.4029 887.309 93.7969C887.539 93.6343 887.77 93.4459 888 93.2734C888.23 93.4459 888.461 93.6343 888.691 93.7969C890.966 95.4029 893.245 96.535 895.5 97.0351C897.755 97.5353 900.058 97.3711 902 96.25C903.942 95.1288 905.235 93.2151 905.93 91.0117C906.624 88.8083 906.785 86.2691 906.531 83.4961C906.506 83.2152 906.456 82.9224 906.422 82.6367C906.687 82.5233 906.966 82.4192 907.223 82.3008C909.751 81.1339 911.869 79.7266 913.43 78.0234C914.991 76.3202 916 74.2423 916 72C916 69.7576 914.991 67.6798 913.43 65.9765C911.869 64.2733 909.751 62.8661 907.223 61.6992C906.966 61.5808 906.687 61.4766 906.422 61.3633C906.456 61.0775 906.506 60.7848 906.531 60.5039C906.785 57.7309 906.624 55.1916 905.93 52.9883C905.235 50.7849 903.942 48.8711 902 47.75C900.058 46.6288 897.755 46.4647 895.5 46.9648C893.245 47.465 890.966 48.597 888.691 50.2031C888.461 50.3657 888.23 50.5541 888 50.7265C887.77 50.5541 887.539 50.3657 887.309 50.2031C885.034 48.597 882.755 47.465 880.5 46.9648C879.936 46.8398 879.372 46.7561 878.809 46.7187ZM878.547 50.7031C878.888 50.7288 879.25 50.7853 879.637 50.8711C881.148 51.2062 882.958 52.0545 884.867 53.3828C883.277 54.8911 881.712 56.6071 880.219 58.5273C877.812 58.8607 875.544 59.3544 873.445 59.9765C873.25 57.66 873.418 55.6674 873.883 54.1914C874.359 52.6803 875.072 51.7505 876 51.2148C876.696 50.8131 877.524 50.6261 878.547 50.7031ZM897.453 50.7031C898.476 50.6261 899.304 50.8131 900 51.2148C900.928 51.7505 901.641 52.6803 902.117 54.1914C902.582 55.6674 902.75 57.66 902.555 59.9765C900.456 59.3544 898.188 58.8607 895.781 58.5273C894.288 56.6071 892.723 54.8911 891.133 53.3828C893.042 52.0545 894.852 51.2062 896.363 50.8711C896.75 50.7853 897.112 50.7288 897.453 50.7031ZM888 55.9179C888.703 56.5679 889.405 57.2907 890.105 58.0469C889.408 58.0222 888.711 58 888 58C887.289 58 886.592 58.0222 885.895 58.0469C886.595 57.2907 887.297 56.5679 888 55.9179ZM888 62C889.929 62 891.799 62.1134 893.598 62.3047C894.663 63.7669 895.696 65.3294 896.66 67C897.625 68.6707 898.461 70.3464 899.195 72C898.461 73.6536 897.625 75.3292 896.66 77C895.696 78.6706 894.663 80.233 893.598 81.6953C891.799 81.8865 889.929 82 888 82C886.071 82 884.201 81.8865 882.402 81.6953C881.337 80.233 880.304 78.6706 879.34 77C878.375 75.3292 877.539 73.6536 876.805 72C877.539 70.3464 878.375 68.6707 879.34 67C880.304 65.3294 881.337 63.7669 882.402 62.3047C884.201 62.1134 886.071 62 888 62ZM876.969 63.1992C876.599 63.7908 876.23 64.3843 875.875 65C875.52 65.6157 875.191 66.2313 874.863 66.8476C874.559 65.8641 874.285 64.8934 874.074 63.9609C874.988 63.6772 875.964 63.4279 876.969 63.1992ZM899.031 63.1992C900.036 63.4279 901.012 63.6772 901.926 63.9609C901.715 64.8934 901.441 65.8641 901.137 66.8476C900.809 66.2313 900.48 65.6157 900.125 65C899.77 64.3843 899.401 63.7908 899.031 63.1992ZM870.309 65.4062C870.82 67.537 871.526 69.7468 872.441 72C871.526 74.2532 870.82 76.463 870.309 78.5937C868.206 77.605 866.565 76.4609 865.52 75.3203C864.449 74.1522 864 73.0714 864 72C864 70.9286 864.449 69.8478 865.52 68.6797C866.565 67.5391 868.206 66.395 870.309 65.4062ZM905.691 65.4062C907.794 66.395 909.435 67.5391 910.48 68.6797C911.551 69.8478 912 70.9286 912 72C912 73.0714 911.551 74.1522 910.48 75.3203C909.435 76.4609 907.794 77.605 905.691 78.5937C905.18 76.463 904.474 74.2532 903.559 72C904.474 69.7468 905.18 67.537 905.691 65.4062ZM888 66C884.71 66 882 68.71 882 72C882 75.29 884.71 78 888 78C891.29 78 894 75.29 894 72C894 68.71 891.29 66 888 66ZM888 70C889.128 70 890 70.8717 890 72C890 73.1282 889.128 74 888 74C886.872 74 886 73.1282 886 72C886 70.8717 886.872 70 888 70ZM874.863 77.1523C875.191 77.7686 875.52 78.3843 875.875 79C876.23 79.6157 876.599 80.2091 876.969 80.8008C875.964 80.572 874.988 80.3228 874.074 80.039C874.285 79.1066 874.559 78.1358 874.863 77.1523ZM901.137 77.1523C901.441 78.1358 901.715 79.1066 901.926 80.039C901.012 80.3228 900.036 80.572 899.031 80.8008C899.401 80.2091 899.77 79.6157 900.125 79C900.48 78.3843 900.809 77.7686 901.137 77.1523ZM873.445 84.0234C875.544 84.6456 877.812 85.1392 880.219 85.4726C881.712 87.3929 883.277 89.1088 884.867 90.6172C882.958 91.9454 881.148 92.7937 879.637 93.1289C878.09 93.4719 876.928 93.3208 876 92.7851C875.072 92.2494 874.359 91.3197 873.883 89.8086C873.418 88.3326 873.25 86.3399 873.445 84.0234ZM902.555 84.0234C902.75 86.3399 902.582 88.3326 902.117 89.8086C901.641 91.3197 900.928 92.2494 900 92.7851C899.072 93.3208 897.91 93.4719 896.363 93.1289C894.852 92.7937 893.042 91.9454 891.133 90.6172C892.723 89.1088 894.288 87.3929 895.781 85.4726C898.188 85.1392 900.456 84.6456 902.555 84.0234ZM885.895 85.9531C886.592 85.9778 887.289 86 888 86C888.711 86 889.408 85.9778 890.105 85.9531C889.405 86.7093 888.703 87.4321 888 88.082C887.297 87.4321 886.595 86.7093 885.895 85.9531Z" fill="white"/>
<path d="M846.24 201H842.688V178.664H851.04C853.173 178.664 854.795 179.261 855.904 180.456C857.035 181.651 857.6 183.293 857.6 185.384C857.6 187.091 857.184 188.499 856.352 189.608C855.52 190.717 854.325 191.4 852.768 191.656L857.92 201H853.952L849.216 191.976H846.24V201ZM850.528 189.096C852.747 189.096 853.856 188.083 853.856 186.056V184.68C853.856 182.653 852.747 181.64 850.528 181.64H846.24V189.096H850.528ZM861.94 201V178.664H875.924V181.672H865.524V188.168H875.54V191.176H865.524V197.992H875.924V201H861.94ZM893.159 201L891.463 195.048H884.359L882.663 201H879.015L885.543 178.664H890.439L896.967 201H893.159ZM888.039 182.28H887.783L885.031 192.072H890.791L888.039 182.28ZM907.803 201.384C904.965 201.384 902.853 200.381 901.467 198.376C900.101 196.371 899.419 193.523 899.419 189.832C899.419 186.141 900.101 183.293 901.467 181.288C902.853 179.283 904.965 178.28 907.803 178.28C908.891 178.28 909.829 178.429 910.619 178.728C911.429 179.005 912.123 179.4 912.699 179.912C913.275 180.403 913.755 180.989 914.139 181.672C914.544 182.333 914.875 183.048 915.131 183.816L911.899 184.904C911.728 184.392 911.536 183.912 911.323 183.464C911.109 183.016 910.843 182.632 910.523 182.312C910.203 181.992 909.819 181.736 909.371 181.544C908.944 181.352 908.411 181.256 907.771 181.256C906.192 181.256 905.04 181.864 904.315 183.08C903.589 184.275 903.227 185.896 903.227 187.944V191.72C903.227 193.768 903.589 195.4 904.315 196.616C905.04 197.811 906.192 198.408 907.771 198.408C908.411 198.408 908.944 198.312 909.371 198.12C909.819 197.928 910.203 197.672 910.523 197.352C910.843 197.032 911.109 196.648 911.323 196.2C911.536 195.752 911.728 195.272 911.899 194.76L915.131 195.848C914.875 196.616 914.544 197.341 914.139 198.024C913.755 198.685 913.275 199.272 912.699 199.784C912.123 200.275 911.429 200.669 910.619 200.968C909.829 201.245 908.891 201.384 907.803 201.384ZM928.142 181.672V201H924.558V181.672H917.55V178.664H935.15V181.672H928.142Z" fill="#28A9E0"/>
</svg>
